PathFileType	3	(X/Y/Z)	D:\VICON_DB\Goncalves\Pilot01\09-03-2026\walking_02.trc
DataRate	CameraRate	NumFrames	NumMarkers	Units	OrigDataRate	OrigDataStartFrame	OrigNumFrames
200.0	200.0	10	34	mm	200.0	813	1300	
Frame#	Time	LASI			RASI			LPSI			RPSI			LTHI			LTHAP			LTHAD			LKNE			LKNM			LTIB			LTIAP			LTIAD			LANK			LMED			LHEE			LTOE			LFMH			LSMH			LVMH			RTHI			RTHAP			RTHAD			RKNE			RKNM			RTIB			RTIAP			RTIAD			RANK			RMED			RHEE			RTOE			RFMH			RSMH			RVMH			
		X1	Y1	Z1	X2	Y2	Z2	X3	Y3	Z3	X4	Y4	Z4	X5	Y5	Z5	X6	Y6	Z6	X7	Y7	Z7	X8	Y8	Z8	X9	Y9	Z9	X10	Y10	Z10	X11	Y11	Z11	X12	Y12	Z12	X13	Y13	Z13	X14	Y14	Z14	X15	Y15	Z15	X16	Y16	Z16	X17	Y17	Z17	X18	Y18	Z18	X19	Y19	Z19	X20	Y20	Z20	X21	Y21	Z21	X22	Y22	Z22	X23	Y23	Z23	X24	Y24	Z24	X25	Y25	Z25	X26	Y26	Z26	X27	Y27	Z27	X28	Y28	Z28	X29	Y29	Z29	X30	Y30	Z30	X31	Y31	Z31	X32	Y32	Z32	X33	Y33	Z33	X34	Y34	Z34	
813	4.06	400.42966	861.51624	943.49231	138.48898	852.39331	926.91028				264.20886	898.948	737.31482	408.09531	694.16998	1010.1167	435.48788	748.71997	967.83582	438.58255	621.48822	1010.3562	405.30713	467.54504	1038.6345				411.43851	270.42493	1061.0112	355.28946	361.09723	1088.5135	374.99179	255.60651	1101.14	371.10245	64.023613	1087.7407				320.88635	52.932415	1038.6497	339.12753	76.84623	1162.7568	304.28946	61.592583	1216.5095				381.23611	35.168995	1214.291	127.15816	573.53534	843.66132	127.97066	696.69312	900.67828	151.05606	602.75513	910.83075	147.88916	448.13391	778.32031				147.66119	279.06854	664.91321	195.36981	302.18118	729.28046	201.39987	237.89612	676.6333	188.39124	112.50468	498.05017				229.36989	132.26129	465.76633	210.38768	79.010605	581.37927	243.61333	44.571892	614.58276				172.0224	17.944576	593.17578
814	4.065	401.15103	862.53351	950.5639	139.32269	852.39148	934.19073				264.64676	899.06964	744.33777	408.70599	694.95111	1016.8306	436.02478	749.62299	974.70874	439.25708	622.27063	1017.0606	405.80411	468.12589	1045.0675				411.80396	270.56281	1065.3217	355.62338	360.9628	1093.9395	375.24088	255.20284	1105.1249	371.20996	63.775585	1088.9084				321.09406	53.468651	1039.4786	339.08536	75.393997	1164.1327	304.0817	59.29565	1217.6027				381.22864	32.891541	1215.2786	127.64624	573.15894	851.8725	128.79968	696.5332	908.32532	151.54768	602.65314	918.99567	148.13025	447.53415	787.04315				147.67677	280.25128	671.4516	195.26817	302.04135	736.37396	201.17578	238.67215	682.65027	188.10156	116.4387	501.79227				229.18616	137.2108	470.20602	210.07147	80.146629	584.02466	243.6651	44.52219	615.50256				172.30977	18.6304	593.60309
815	4.07	401.90656	863.63116	957.61456	140.22278	852.46149	941.48206				265.04575	899.23987	751.34827	409.42093	695.73047	1023.475	436.65814	750.53625	981.49579	439.97946	623.02325	1023.6506	406.32196	468.64655	1051.3147				412.16141	270.67218	1069.4624	355.96899	360.80209	1099.1852	375.48782	254.78897	1108.9447	371.29852	63.581467	1090.0004				321.2959	53.996681	1040.2437	338.99924	74.073677	1165.3848	303.83612	57.168579	1218.5697				381.22269	30.848913	1216.2003	128.07948	572.85181	860.20471	129.61322	696.46558	916.04108	152.00435	602.64911	927.26245	148.29836	446.96353	795.95459				147.64586	281.51315	678.23138	195.08131	301.9566	743.71613	200.87909	239.51866	688.94788	187.85158	120.47264	505.87				229.06505	142.2829	475.05811	209.77144	81.304306	586.87396	243.73489	44.492516	616.50629				172.60989	19.419308	594.10468
816	4.075	402.69345	864.78851	964.63867	141.18289	852.60046	948.77246				265.41049	899.45172	758.34344	410.23102	696.48615	1030.0587	437.38409	751.44019	988.2049	440.73306	623.72687	1030.1243	406.85367	469.09586	1057.3694				412.50104	270.74463	1073.4286	356.31989	360.60657	1104.2465	375.72537	254.35736	1112.5995	371.3652	63.434093	1091.0168				321.48428	54.507233	1040.9465	338.87131	72.883095	1166.5178	303.5618	55.212055	1219.4222				381.22537	29.041704	1217.0581	128.45271	572.61627	868.64374	130.40364	696.48926	923.81335	152.41901	602.74249	935.61627	148.38982	446.42407	805.0437				147.56404	282.84906	685.25195	194.80182	301.92377	751.3067	200.50467	240.42891	695.52948	187.64424	124.59303	510.29623				229.00894	147.45822	480.33783	209.48976	82.486107	589.93463	243.81943	44.498554	617.61133				172.92151	20.322779	594.69482
817	4.08	403.50836	865.9837	971.63074	142.19467	852.80518	956.04919				265.74561	899.69879	765.31982	411.12543	697.19727	1036.5878	438.19537	752.31628	994.84387	441.50363	624.36493	1036.4795	407.39279	469.46677	1063.2285				412.81488	270.7757	1077.2205	356.66824	360.37103	1109.1207	375.94595	253.90359	1116.0924	371.40839	63.327225	1091.9553				321.6543	54.992889	1041.5879	338.70468	71.819664	1167.5354	303.26431	53.426086	1220.1685				381.23856	27.467907	1217.8505	128.76286	572.4541	877.17535	131.16428	696.6026	931.62915	152.78638	602.9325	944.04156	148.40334	445.91821	814.29919				147.42839	284.25342	692.51251	194.42493	301.94009	759.14459	200.04939	241.39633	702.39642	187.48259	128.78722	515.0816				229.01935	152.71663	486.0574	209.2283	83.697456	593.21472	243.91389	44.559238	618.83984				173.24297	21.353622	595.39246
818	4.085	404.34735	867.19537	978.58508	143.24829	853.07245	963.29834				266.05545	899.97607	772.27222	412.09222	697.84479	1043.0657	439.08167	753.14917	1001.4202	442.27988	624.9245	1042.7133	407.9339	469.75671	1068.8931				413.09689	270.76437	1080.842	357.00552	360.0929	1113.8074	376.14252	253.42595	1119.4277	371.42789	63.255085	1092.8129				321.80344	55.448238	1042.1681	338.50436	70.87973	1168.4413	302.94775	51.809425	1220.8162				381.25995	26.121597	1218.576	129.00928	572.36652	885.78485	131.88992	696.80316	939.47504	153.10341	603.21783	952.52295	148.34003	445.4491	823.70966				147.23787	285.71994	700.01184	193.94897	302.00354	767.22766	199.51233	242.41489	709.54889	187.36951	133.04379	520.2345				229.09705	158.03754	492.22543	208.98856	84.947006	596.72308	244.01212	44.696156	620.21869				173.57213	22.525932	596.22089
819	4.09	405.20605	868.40338	985.49664	144.33241	853.39862	970.5058				266.34412	900.28015	779.19556	413.11926	698.41388	1049.4938	440.03027	753.92596	1007.9387	443.05389	625.39667	1048.8232	408.47211	469.96643	1074.3669				413.34308	270.71216	1084.3	357.32364	359.77213	1118.3069	376.30933	252.92516	1122.6115	371.42545	63.212254	1093.589				321.9321	55.86993	1042.6884	338.27728	70.058022	1169.2397	302.61661	50.359055	1221.3727				381.28601	24.991823	1219.2339	129.19386	572.35443	894.45886	132.57686	697.08856	947.33746	153.36966	603.59735	961.04572	148.20364	445.02045	833.26471				146.99341	287.24152	707.74896	193.37598	302.1127	775.5528	198.89548	243.47919	716.98535	187.30771	137.35255	525.76123				229.24214	163.40045	498.84659	208.77147	86.246666	600.46973	244.10661	44.932762	621.77991				173.90579	23.854931	597.20911
820	4.095	406.07938	869.59009	992.3606	145.43471	853.78003	977.6582				266.61514	900.6098	786.08417	414.19449	698.89386	1055.8704	441.0271	754.63812	1014.403	443.8208	625.77686	1054.8069	409.00381	470.09961	1079.6549				413.55197	270.62265	1087.603	357.61612	359.4104	1122.6212	376.44272	252.40395	1125.6501	371.40463	63.193672	1094.2849				322.0426	56.256729	1043.1509	338.03201	69.347488	1169.9368	302.27704	49.070026	1221.8463				381.31406	24.062454	1219.824	129.32077	572.41785	903.18475	133.22285	697.45618	955.20343	153.58731	604.06946	969.59662	148.00018	444.63626	842.95471				146.69827	288.81091	715.72266	192.71176	302.267	784.11694	198.20425	244.58456	724.703	187.29965	141.70453	531.66559				229.45457	168.78529	505.92102	208.57735	87.61113	604.46613	244.18892	45.293102	623.55994				174.23943	25.356531	598.39111
821	4.1	406.96185	870.74139	999.17297	146.54239	854.2132	984.74377				266.87155	900.96552	792.93298	415.30621	699.27875	1062.1914	442.05731	755.28113	1020.8142	444.57773	626.06421	1060.6615	409.52655	470.16183	1084.7627				413.72513	270.50076	1090.759	357.8793	359.01096	1126.7531	376.54178	251.86629	1128.5509	371.37054	63.194839	1094.9048				322.13873	56.60918	1043.5598	337.77872	68.739578	1170.5398	301.9375	47.935673	1222.2463				381.34326	23.313297	1220.348	129.39601	572.5564	911.95178	133.82718	697.90393	963.06097	153.76106	604.63342	978.1637	147.73764	444.30084	852.77161				146.35786	290.42044	723.9325	191.96599	302.46674	792.91589	197.44778	245.72701	732.69781	187.34752	146.09184	537.94867				229.73412	174.1725	513.4444	208.40588	89.057098	608.72559	244.2495	45.800438	625.5993				174.56686	27.046488	599.80621
822	4.105	407.84735	871.84625	1005.9303	147.64267	854.69507	991.7533				267.11548	901.34991	799.73694	416.44308	699.56744	1068.4497	443.10605	755.85468	1027.1711	445.32306	626.26172	1066.3855	410.03906	470.15994	1089.6949				413.86691	270.35202	1093.7762	358.11307	358.57782	1130.7059	376.60864	251.31657	1131.3197	371.32956	63.211987	1095.4546				322.22467	56.928963	1043.9191	337.52817	68.224762	1171.0565	301.60797	46.94791	1222.5823				381.37457	22.721796	1220.8083	129.42613	572.76965	920.75159	134.39038	698.42944	970.89941	153.8978	605.28821	986.73755	147.42532	444.01846	862.70856				145.97969	292.06271	732.37787	191.15167	302.71313	801.94501	196.63879	246.90334	740.96393	187.45337	150.50743	544.60931				230.08093	179.54305	521.40765	208.25572	90.602081	613.26318	244.27792	46.475639	627.94141				174.8799	28.939171	601.49725
